<svg id="svg-art" viewBox="0 0 680 440" xmlns="http://www.w3.org/2000/svg">
  <defs>
    <filter id="tex">
      <feTurbulence type="fractalNoise" baseFrequency="0.85" numOctaves="4" result="noise"/>
      <feDisplacementMap in="SourceGraphic" in2="noise" scale="2.2" xChannelSelector="R" yChannelSelector="G"/>
    </filter>
  </defs>

  <!-- NOT -->
  <g filter="url(#tex)">
    <!-- N -->
    <rect x="76" y="20" width="24" height="96" rx="7" fill="#d4834a"/>
    <polygon points="100,20 126,20 126,30 100,116 76,116 76,106" fill="#c97a3a"/>
    <rect x="100" y="20" width="24" height="96" rx="7" fill="#d4834a"/>
    <rect x="76" y="20" width="5" height="96" rx="2" fill="#e8a060" opacity="0.45"/>

    <!-- O -->
    <rect x="144" y="20" width="92" height="96" rx="24" fill="#d4834a"/>
    <rect x="167" y="42" width="46" height="52" rx="13" fill="#1a1410"/>
    <rect x="144" y="20" width="5" height="96" rx="2" fill="#e8a060" opacity="0.4"/>

    <!-- T -->
    <rect x="256" y="20" width="96" height="24" rx="9" fill="#d4834a"/>
    <rect x="292" y="20" width="24" height="96" rx="7" fill="#d4834a"/>
    <rect x="256" y="20" width="5" height="24" rx="2" fill="#e8a060" opacity="0.4"/>
  </g>

  <!-- drips -->
  <rect x="192" y="116" width="7" height="20" rx="3.5" fill="#d4834a" opacity="0.28"/>
  <ellipse cx="195.5" cy="137" rx="5.5" ry="3.5" fill="#d4834a" opacity="0.22"/>
  <rect x="100" y="116" width="6" height="14" rx="3" fill="#c97a3a" opacity="0.22"/>
  <rect x="294" y="116" width="5" height="24" rx="2.5" fill="#d4834a" opacity="0.2"/>

  <!-- THE -->
  <g filter="url(#tex)">
    <!-- T -->
    <rect x="72" y="160" width="86" height="22" rx="8" fill="#c07a40"/>
    <rect x="107" y="160" width="22" height="88" rx="7" fill="#c07a40"/>
    <rect x="72" y="160" width="5" height="22" rx="2" fill="#d4935a" opacity="0.4"/>

    <!-- H -->
    <rect x="174" y="160" width="22" height="88" rx="7" fill="#c07a40"/>
    <rect x="244" y="160" width="22" height="88" rx="7" fill="#c07a40"/>
    <rect x="174" y="198" width="92" height="20" rx="6" fill="#c07a40"/>
    <rect x="174" y="160" width="5" height="88" rx="2" fill="#d4935a" opacity="0.4"/>

    <!-- E -->
    <rect x="284" y="160" width="22" height="88" rx="7" fill="#c07a40"/>
    <rect x="284" y="160" width="78" height="22" rx="8" fill="#c07a40"/>
    <rect x="284" y="196" width="62" height="18" rx="6" fill="#c07a40"/>
    <rect x="284" y="226" width="78" height="22" rx="8" fill="#c07a40"/>
    <rect x="284" y="160" width="5" height="88" rx="2" fill="#d4935a" opacity="0.4"/>
  </g>

  <!-- LOUVRE -->
  <g filter="url(#tex)">
    <!-- L -->
    <rect x="52" y="308" width="22" height="96" rx="7" fill="#b87038"/>
    <rect x="52" y="382" width="64" height="22" rx="8" fill="#b87038"/>
    <rect x="52" y="308" width="5" height="96" rx="2" fill="#cc8c50" opacity="0.4"/>

    <!-- O -->
    <rect x="130" y="308" width="84" height="96" rx="24" fill="#b87038"/>
    <rect x="152" y="330" width="40" height="52" rx="14" fill="#1a1410"/>
    <rect x="130" y="308" width="5" height="96" rx="2" fill="#cc8c50" opacity="0.4"/>

    <!-- U -->
    <rect x="228" y="308" width="22" height="72" rx="7" fill="#b87038"/>
    <rect x="302" y="308" width="22" height="72" rx="7" fill="#b87038"/>
    <rect x="228" y="378" width="96" height="22" rx="12" fill="#b87038"/>
    <rect x="228" y="308" width="5" height="72" rx="2" fill="#cc8c50" opacity="0.4"/>

    <!-- V -->
    <polygon points="340,308 366,308 388,392 364,404 340,308" fill="#b87038"/>
    <polygon points="406,308 432,308 408,404 388,392 406,308" fill="#b87038"/>
    <rect x="340" y="308" width="5" height="34" rx="2" fill="#cc8c50" opacity="0.35"/>

    <!-- R -->
    <rect x="446" y="308" width="22" height="96" rx="7" fill="#b87038"/>
    <rect x="446" y="308" width="64" height="48" rx="18" fill="#b87038"/>
    <rect x="460" y="322" width="38" height="26" rx="11" fill="#1a1410"/>
    <polygon points="484,356 508,356 532,404 508,404 484,356" fill="#b87038"/>
    <rect x="446" y="308" width="5" height="96" rx="2" fill="#cc8c50" opacity="0.4"/>

    <!-- E -->
    <rect x="544" y="308" width="22" height="96" rx="7" fill="#b87038"/>
    <rect x="544" y="308" width="74" height="22" rx="8" fill="#b87038"/>
    <rect x="544" y="346" width="58" height="18" rx="6" fill="#b87038"/>
    <rect x="544" y="382" width="74" height="22" rx="8" fill="#b87038"/>
    <rect x="544" y="308" width="5" height="96" rx="2" fill="#cc8c50" opacity="0.4"/>
  </g>

  <text x="340" y="428" font-family="Georgia,serif" font-size="13" fill="#a07848" text-anchor="middle" font-style="italic" opacity="0.7">Where masterpieces are made... or not.</text>
</svg>